# xmcd CD database file
#
# Track frame offsets:
#	182
#	5775
#	54982
#	98842
#	114195
#	151085
#	165740
#
# Disc length: 2869 seconds
#
# Revision: 0
# Processed by: cddbd v1.5.1PL0 Copyright (c) Steve Scherf et al.
# Submitted via: CDex 1.51
#
DISCID=470b3307
DTITLE=Enrico Rava - Secrets
DYEAR=1986
DGENRE=Jazz
TTITLE0=Cornette
TTITLE1=Secrets
TTITLE2=Da Silva
TTITLE3=Holiday For Strings
TTITLE4=Tomo Y Recuerdo
TTITLE5=Planet Earth
TTITLE6=Monky Tonk
EXTD=YEAR: 1986
EXTT0=
EXTT1=
EXTT2=
EXTT3=
EXTT4=
EXTT5=
EXTT6=
PLAYORDER=
